<svg viewBox="0 0 64 64" xmlns="http://www.w3.org/2000/svg"><g fill="#ab5034"><path d="m36.49 45a3 3 0 1 1 3-3 3 3 0 0 1 -3 3z"/><path d="m28.55 44.27a3 3 0 0 1 -2.86-3.91 3 3 0 0 1 3.72-2c3.26.92 2.59 5.91-.86 5.91z"/><path d="m44.3 43.48a3 3 0 1 1 3-3 3 3 0 0 1 -3 3z"/><path d="m21.58 40.47a3 3 0 1 1 3-3 3 3 0 0 1 -3 3z"/><path d="m49.76 38a3 3 0 1 1 3-3 3 3 0 0 1 -3 3z"/><path d="m17.06 34a3 3 0 1 1 3-3 3 3 0 0 1 -3 3z"/><path d="m49.43 30.14a3 3 0 1 1 2.85-3.94 3 3 0 0 1 -2.85 3.94z"/><path d="m16.21 26.08a3 3 0 0 1 .27-6 3 3 0 1 1 -.27 6z"/><path d="m45.48 23.24a3.13 3.13 0 0 1 -3.07-3.08 3 3 0 1 1 3.07 3.08z"/><path d="m19 18.56a3 3 0 1 1 3-3 3 3 0 0 1 -3 3z"/><path d="m39.9 17.37a3 3 0 1 1 3-3 3 3 0 0 1 -3 3z"/><path d="m25.09 13.63a3 3 0 1 1 3-3 3 3 0 0 1 -3 3z"/><path d="m33 13.56a3 3 0 1 1 .61-5.94 3 3 0 0 1 -.61 5.94z"/></g><path d="m20 41c0 2.59-4 2.72-4 0a2 2 0 0 1 4 0z" fill="#e5a430"/><path d="m16.83 47.83c-1.56 1.56-4.83 3.17-5.66 6-2.17-2.83-1.56-10.1 0-11.66a4 4 0 0 1 4.92-.58c0 .21.72 1.32 1.32 1.32a4 4 0 0 1 -.58 4.92z" fill="#f6d445"/></svg>