<svg viewBox="0 0 50.92 50.92" xmlns="http://www.w3.org/2000/svg"><path d="m50.92 25.46-7.46 7.46v10.54h-10.54l-7.46 7.46-7.46-7.46h-10.54v-10.54l-7.46-7.46 7.46-7.46v-10.54h10.54l7.46-7.46 7.46 7.46h10.54v10.54z" fill="#016062"/><path d="m43 7.46a39 39 0 0 1 -35.54 32.89v-7.43l-7.46-7.46 7.46-7.46v-10.54h10.54l7.46-7.46 7.46 7.46z" fill="#016062"/><path d="m37.46 26.58a12 12 0 1 1 -12.12-12.12 9 9 0 0 0 -4.88 8c0 9.4 12.7 12.48 17 4.12z" fill="#f6d445"/><g fill="#e5a430"><path d="m37.46 26.58a12 12 0 0 1 -12 11.88c-7.37 0-12.75-6.62-12-13a12 12 0 0 0 23.65 1.65 5.54 5.54 0 0 0 .35-.53z"/><path d="m31.46 24.46a4 4 0 0 0 -4-4 4 4 0 0 0 4-4 4 4 0 0 0 4 4 4 4 0 0 0 -4 4z"/></g></svg>